<?xml version="1.0" encoding="utf-8"?>
<!-- Generator: Adobe Illustrator 15.0.2, SVG Export Plug-In . SVG Version: 6.00 Build 0)  -->
<!DOCTYPE svg PUBLIC "-//W3C//DTD SVG 1.1//EN" "http://www.w3.org/Graphics/SVG/1.1/DTD/svg11.dtd">
<svg version="1.1" id="Layer_1" xmlns="http://www.w3.org/2000/svg" xmlns:xlink="http://www.w3.org/1999/xlink" x="0px" y="0px"
	 width="792px" height="792px" viewBox="0 0 792 792" enable-background="new 0 0 792 792" xml:space="preserve">
<g>
	<path fill="none" stroke="#000000" stroke-width="0.5" stroke-miterlimit="10" d="M394.876,166.08l-11.833,12.499
		c0,0-2.424,2.868-2.424,6.105c0,4.697,4.316,8.6,9.312,8.6c7.416,0,10.098-4.412,9.994-8.031c-0.082-2.825-1.318-4.299-2.266-4.866
		h6.101v12.897h3.682v-12.897l0.584,0.002l3.229-4.104h-3.813v-9.811l-3.419,3.676v6.391h-6.628v-1.753l8.263-8.708h-4.733
		l-13.2,14.082c0,0,8.211-1.583,8.461,4.297c0.167,3.908-3.358,5.373-6.254,5.373c-1.473,0-5.509-1.251-5.742-5.029
		c-0.148-2.378,1.549-3.973,1.549-3.973l13.818-14.75H394.876z"/>
</g>
</svg>
