<?xml version="1.0" encoding="UTF-8" standalone="no"?>
<!-- Generator: Adobe Illustrator 15.0.2, SVG Export Plug-In . SVG Version: 6.00 Build 0)  -->

<svg
   xmlns:dc="http://purl.org/dc/elements/1.1/"
   xmlns:cc="http://creativecommons.org/ns#"
   xmlns:rdf="http://www.w3.org/1999/02/22-rdf-syntax-ns#"
   xmlns:svg="http://www.w3.org/2000/svg"
   xmlns="http://www.w3.org/2000/svg"
   xmlns:sodipodi="http://sodipodi.sourceforge.net/DTD/sodipodi-0.dtd"
   xmlns:inkscape="http://www.inkscape.org/namespaces/inkscape"
   version="1.1"
   id="Layer_1"
   x="0px"
   y="0px"
   width="210mm"
   height="297mm"
   viewBox="0 0 793.70078 1122.5197"
   enable-background="new 0 0 792 792"
   xml:space="preserve"
   sodipodi:docname="64_20mm.svg"
   inkscape:version="0.92.4 (5da689c313, 2019-01-14)"><metadata
   id="metadata4767"><rdf:RDF><cc:Work
       rdf:about=""><dc:format>image/svg+xml</dc:format><dc:type
         rdf:resource="http://purl.org/dc/dcmitype/StillImage" /><dc:title></dc:title></cc:Work></rdf:RDF></metadata><defs
   id="defs4765" /><sodipodi:namedview
   pagecolor="#ffffff"
   bordercolor="#666666"
   borderopacity="1"
   objecttolerance="10"
   gridtolerance="10"
   guidetolerance="10"
   inkscape:pageopacity="0"
   inkscape:pageshadow="2"
   inkscape:window-width="1575"
   inkscape:window-height="994"
   id="namedview4763"
   showgrid="false"
   units="mm"
   inkscape:zoom="3.9581645"
   inkscape:cx="434.67038"
   inkscape:cy="631.68902"
   inkscape:window-x="677"
   inkscape:window-y="286"
   inkscape:window-maximized="1"
   inkscape:current-layer="g4760" />
<g
   id="g4760"
   transform="matrix(2.4429199,0,0,2.4467616,-544.49522,54.778542)"
   style="stroke-width:0.40902469">
	<path
   stroke-miterlimit="10"
   d="m 393.57802,163.26104 -11.833,12.499 c 0,0 -2.424,2.868 -2.424,6.105 0,4.697 4.316,8.6 9.312,8.6 7.416,0 10.098,-4.412 9.994,-8.031 -0.082,-2.825 -1.318,-4.299 -2.266,-4.866 h 6.101 v 12.897 h 3.682 v -12.897 l 0.584,0.002 3.229,-4.104 h -3.813 v -9.811 l -3.419,3.676 v 6.391 h -6.628 v -1.753 l 8.263,-8.708 h -4.733 l -13.2,14.082 c 0,0 8.211,-1.583 8.461,4.297 0.167,3.908 -3.358,5.373 -6.254,5.373 -1.473,0 -5.509,-1.251 -5.742,-5.029 -0.148,-2.378 1.549,-3.973 1.549,-3.973 l 13.818,-14.75 z"
   id="path4758"
   inkscape:connector-curvature="0"
   style="fill:none;stroke:#000000;stroke-width:0.15459202;stroke-miterlimit:10;stroke-dasharray:none" />
<rect
   style="opacity:0.98999999;fill:#000000;fill-opacity:0;fill-rule:nonzero;stroke:#000000;stroke-width:0.15459202;stroke-linecap:round;stroke-linejoin:miter;stroke-miterlimit:10;stroke-dasharray:none;stroke-dashoffset:0;stroke-opacity:1;paint-order:markers fill stroke"
   id="rect4773"
   width="30.942705"
   height="30.894121"
   x="379.20862"
   y="161.41599" /></g>
</svg>